# xmcd
#
# Track frame offsets:
#	150
#	16128
#	32347
#	51885
#	70488
#	86464
#	101881
#	114959
#	131822
#	145833
#	160492
#
# Disc length: 2355 seconds
#
# Revision: 0
# Processed by: cddbd v1.4PL0 Copyright (c) Steve Scherf et al.
# Submitted via: dBpowerAMP V4.0
#
DISCID=9109310b
DTITLE=Brooks and Dunn - Borderline
DYEAR=1900
DGENRE=Country
TTITLE0=My Maria
TTITLE1=Man This Lonely
TTITLE2=Why Would I Say Goodbye
TTITLE3=Mama Don't Get Dressed Up For Nothing
TTITLE4=I Am That Man
TTITLE5=More Than A Margarita
TTITLE6=Redneck Rhythm and Blues
TTITLE7=My Love Will Follow You
TTITLE8=One Heartache At A Time
TTITLE9=Tequila Town
TTITLE10=White Line Casanova
EXTD=
EXTT0=
EXTT1=
EXTT2=
EXTT3=
EXTT4=
EXTT5=
EXTT6=
EXTT7=
EXTT8=
EXTT9=
EXTT10=
PLAYORDER=
